<svg xmlns="http://www.w3.org/2000/svg" xmlns:xlink="http://www.w3.org/1999/xlink" version="1.1" id="Layer_1" x="0px" y="0px" viewBox="0 0 150 163" enable-background="new 0 0 150 163" xml:space="preserve">
<path stroke="#341F11" stroke-width="9.375000e-02" stroke-miterlimit="10" d="M60.2 6.5c27.3-6.7 58 5.8 72.9 29.5 c9.2 14.6 14 32.5 11 49.6c-1.3 7.6-3.9 15-7.6 21.7c-1.8 3.6-5.3 6.6-9.4 6.9c-5.1 0.7-10.8-1.8-13.4-6.2c-2.6-3.8-2.7-9-0.4-12.9 c4.8-8.9 6.7-19.5 4.3-29.5c-2.3-9.1-6.8-17.8-13.9-24.1C97.7 36.2 90 32.7 82 31.4c-11-1.8-22.4 1.3-31.7 7.3 C34.5 49 27 70.8 33.9 88.6c5.2 16.4 21.2 28.9 38.4 29.5c-0.1-7.9 0.1-15.8-0.2-23.8c-0.4-4.3-3.5-8.2-7.6-9.7 c-3.6-1.5-7.9-0.8-11.3-3c-7.5-4-8.4-15.5-2.2-21c2-1.9 4.8-2.9 7.6-3.2c9-0.5 18.2 2.1 25.3 7.8c8.7 6.7 14.3 17.5 14.4 28.5 c0 5.6-0.1 11.2 0.1 16.9c0.1 4.1-0.5 8.4 1 12.3c1.8 4.3 6.4 7.4 11.1 7.1c4.5-0.2 9.1 2.3 11.3 6.3c1.9 3.8 2.2 8.3 0.7 12.3 c-1.8 4.9-6.9 7.9-12 7.8c-6.7 0-13.5-1.6-19.3-5.1c-3.5-1.8-6.2-4.7-9.3-7.2c-25 3-51-9.3-64.8-30.3c-6-9.1-10-19.5-11.6-30.4 C4.1 72.4 5.4 61.1 9.3 50.8c5.8-16.7 18.4-30.9 34.4-38.4C49.1 10.1 54.4 7.7 60.2 6.5L60.2 6.5z"/>
</svg>
